<mxfile host="app.diagrams.net" agent="Mozilla/5.0 (Windows NT 10.0; Win64; x64) AppleWebKit/537.36 (KHTML, like Gecko) Chrome/138.0.0.0 Safari/537.36" version="28.0.7">
  <diagram id="C5RBs43oDa-KdzZeNtuy" name="Page-1">
    <mxGraphModel dx="1226" dy="620" grid="1" gridSize="10" guides="1" tooltips="1" connect="1" arrows="1" fold="1" page="1" pageScale="1" pageWidth="827" pageHeight="1169" math="0" shadow="0">
      <root>
        <mxCell id="WIyWlLk6GJQsqaUBKTNV-0" />
        <mxCell id="WIyWlLk6GJQsqaUBKTNV-1" parent="WIyWlLk6GJQsqaUBKTNV-0" />
        <mxCell id="Fsb-U_8XL1h9_-FT3sUs-1" value="" style="edgeStyle=orthogonalEdgeStyle;rounded=0;orthogonalLoop=1;jettySize=auto;html=1;" edge="1" parent="WIyWlLk6GJQsqaUBKTNV-1" source="RqQK0pMPcr_RueblTRhE-0" target="RqQK0pMPcr_RueblTRhE-1">
          <mxGeometry relative="1" as="geometry" />
        </mxCell>
        <mxCell id="Fsb-U_8XL1h9_-FT3sUs-13" style="edgeStyle=orthogonalEdgeStyle;rounded=0;orthogonalLoop=1;jettySize=auto;html=1;entryX=1;entryY=0.5;entryDx=0;entryDy=0;" edge="1" parent="WIyWlLk6GJQsqaUBKTNV-1" source="RqQK0pMPcr_RueblTRhE-0" target="RqQK0pMPcr_RueblTRhE-8">
          <mxGeometry relative="1" as="geometry" />
        </mxCell>
        <mxCell id="RqQK0pMPcr_RueblTRhE-0" value="&lt;div&gt;Unidade de processamento&lt;br&gt;ESP32-WROOM&lt;/div&gt;" style="ellipse;whiteSpace=wrap;html=1;" parent="WIyWlLk6GJQsqaUBKTNV-1" vertex="1">
          <mxGeometry x="400" y="220" width="146" height="150" as="geometry" />
        </mxCell>
        <mxCell id="RqQK0pMPcr_RueblTRhE-2" value="" style="edgeStyle=orthogonalEdgeStyle;rounded=0;orthogonalLoop=1;jettySize=auto;html=1;" parent="WIyWlLk6GJQsqaUBKTNV-1" source="RqQK0pMPcr_RueblTRhE-1" target="RqQK0pMPcr_RueblTRhE-0" edge="1">
          <mxGeometry relative="1" as="geometry" />
        </mxCell>
        <mxCell id="Fsb-U_8XL1h9_-FT3sUs-2" value="SPI" style="edgeLabel;html=1;align=center;verticalAlign=middle;resizable=0;points=[];" vertex="1" connectable="0" parent="RqQK0pMPcr_RueblTRhE-2">
          <mxGeometry x="0.0162" relative="1" as="geometry">
            <mxPoint as="offset" />
          </mxGeometry>
        </mxCell>
        <mxCell id="RqQK0pMPcr_RueblTRhE-1" value="Sensor Inercial&lt;br&gt;MPU6050" style="ellipse;whiteSpace=wrap;html=1;" parent="WIyWlLk6GJQsqaUBKTNV-1" vertex="1">
          <mxGeometry x="620" y="265" width="120" height="60" as="geometry" />
        </mxCell>
        <mxCell id="RqQK0pMPcr_RueblTRhE-5" value="" style="edgeStyle=orthogonalEdgeStyle;rounded=0;orthogonalLoop=1;jettySize=auto;html=1;" parent="WIyWlLk6GJQsqaUBKTNV-1" source="RqQK0pMPcr_RueblTRhE-3" target="RqQK0pMPcr_RueblTRhE-1" edge="1">
          <mxGeometry relative="1" as="geometry">
            <Array as="points">
              <mxPoint x="592" y="190" />
              <mxPoint x="680" y="190" />
            </Array>
          </mxGeometry>
        </mxCell>
        <mxCell id="RqQK0pMPcr_RueblTRhE-6" style="edgeStyle=orthogonalEdgeStyle;rounded=0;orthogonalLoop=1;jettySize=auto;html=1;entryX=0.5;entryY=0;entryDx=0;entryDy=0;" parent="WIyWlLk6GJQsqaUBKTNV-1" source="RqQK0pMPcr_RueblTRhE-3" target="RqQK0pMPcr_RueblTRhE-0" edge="1">
          <mxGeometry relative="1" as="geometry" />
        </mxCell>
        <mxCell id="RqQK0pMPcr_RueblTRhE-3" value="Circuito de alimentação" style="ellipse;whiteSpace=wrap;html=1;" parent="WIyWlLk6GJQsqaUBKTNV-1" vertex="1">
          <mxGeometry x="524" y="100" width="136" height="60" as="geometry" />
        </mxCell>
        <mxCell id="RqQK0pMPcr_RueblTRhE-9" value="" style="edgeStyle=orthogonalEdgeStyle;rounded=0;orthogonalLoop=1;jettySize=auto;html=1;" parent="WIyWlLk6GJQsqaUBKTNV-1" source="RqQK0pMPcr_RueblTRhE-7" target="RqQK0pMPcr_RueblTRhE-8" edge="1">
          <mxGeometry relative="1" as="geometry" />
        </mxCell>
        <mxCell id="RqQK0pMPcr_RueblTRhE-7" value="PC" style="ellipse;whiteSpace=wrap;html=1;" parent="WIyWlLk6GJQsqaUBKTNV-1" vertex="1">
          <mxGeometry x="20" y="265" width="120" height="60" as="geometry" />
        </mxCell>
        <mxCell id="RqQK0pMPcr_RueblTRhE-10" value="" style="edgeStyle=orthogonalEdgeStyle;rounded=0;orthogonalLoop=1;jettySize=auto;html=1;" parent="WIyWlLk6GJQsqaUBKTNV-1" source="RqQK0pMPcr_RueblTRhE-8" target="RqQK0pMPcr_RueblTRhE-0" edge="1">
          <mxGeometry relative="1" as="geometry" />
        </mxCell>
        <mxCell id="Fsb-U_8XL1h9_-FT3sUs-7" value="" style="edgeStyle=orthogonalEdgeStyle;rounded=0;orthogonalLoop=1;jettySize=auto;html=1;" edge="1" parent="WIyWlLk6GJQsqaUBKTNV-1" source="RqQK0pMPcr_RueblTRhE-8" target="RqQK0pMPcr_RueblTRhE-0">
          <mxGeometry relative="1" as="geometry" />
        </mxCell>
        <mxCell id="Fsb-U_8XL1h9_-FT3sUs-10" value="Serial" style="edgeLabel;html=1;align=center;verticalAlign=middle;resizable=0;points=[];" vertex="1" connectable="0" parent="Fsb-U_8XL1h9_-FT3sUs-7">
          <mxGeometry x="-0.048" relative="1" as="geometry">
            <mxPoint x="2" as="offset" />
          </mxGeometry>
        </mxCell>
        <mxCell id="Fsb-U_8XL1h9_-FT3sUs-11" style="edgeStyle=orthogonalEdgeStyle;rounded=0;orthogonalLoop=1;jettySize=auto;html=1;entryX=1;entryY=0.5;entryDx=0;entryDy=0;" edge="1" parent="WIyWlLk6GJQsqaUBKTNV-1" source="RqQK0pMPcr_RueblTRhE-8" target="RqQK0pMPcr_RueblTRhE-7">
          <mxGeometry relative="1" as="geometry" />
        </mxCell>
        <mxCell id="Fsb-U_8XL1h9_-FT3sUs-16" value="USB" style="edgeLabel;html=1;align=center;verticalAlign=middle;resizable=0;points=[];" vertex="1" connectable="0" parent="Fsb-U_8XL1h9_-FT3sUs-11">
          <mxGeometry x="0.1798" y="-1" relative="1" as="geometry">
            <mxPoint x="5" y="1" as="offset" />
          </mxGeometry>
        </mxCell>
        <mxCell id="RqQK0pMPcr_RueblTRhE-8" value="Circuito de&amp;nbsp;&lt;br&gt;Gravação" style="ellipse;whiteSpace=wrap;html=1;" parent="WIyWlLk6GJQsqaUBKTNV-1" vertex="1">
          <mxGeometry x="200.47" y="265" width="120" height="60" as="geometry" />
        </mxCell>
        <mxCell id="Fsb-U_8XL1h9_-FT3sUs-3" value="" style="edgeStyle=orthogonalEdgeStyle;rounded=0;orthogonalLoop=1;jettySize=auto;html=1;" edge="1" parent="WIyWlLk6GJQsqaUBKTNV-1" source="RqQK0pMPcr_RueblTRhE-13" target="RqQK0pMPcr_RueblTRhE-3">
          <mxGeometry relative="1" as="geometry" />
        </mxCell>
        <mxCell id="RqQK0pMPcr_RueblTRhE-13" value="USB - carregamento" style="ellipse;whiteSpace=wrap;html=1;" parent="WIyWlLk6GJQsqaUBKTNV-1" vertex="1">
          <mxGeometry x="350" y="100" width="120" height="60" as="geometry" />
        </mxCell>
      </root>
    </mxGraphModel>
  </diagram>
</mxfile>
